<?xml version="1.0" encoding="utf-8"?>
<!-- Generator: Adobe Illustrator 16.0.4, SVG Export Plug-In . SVG Version: 6.00 Build 0)  -->
<!DOCTYPE svg PUBLIC "-//W3C//DTD SVG 1.1//EN" "http://www.w3.org/Graphics/SVG/1.1/DTD/svg11.dtd">
<svg version="1.1" id="Layer_1" xmlns="http://www.w3.org/2000/svg" xmlns:xlink="http://www.w3.org/1999/xlink" x="0px" y="0px"
	 width="120px" height="24px" viewBox="0 0 120 24" enable-background="new 0 0 120 24" xml:space="preserve">
<g>
	<path fill="#FFFFFF" d="M16.515,6.322l-0.354-0.354c-0.098-0.098-0.256-0.098-0.354,0L9.47,12.307L3.132,5.969
		c-0.098-0.098-0.256-0.098-0.354,0L2.425,6.322c-0.098,0.098-0.098,0.256,0,0.354l6.338,6.338l-6.338,6.337
		c-0.047,0.047-0.073,0.11-0.073,0.177s0.026,0.13,0.073,0.177l0.354,0.354c0.098,0.098,0.256,0.098,0.354,0l6.338-6.337
		l6.338,6.337c0.049,0.049,0.113,0.073,0.177,0.073s0.128-0.024,0.177-0.073l0.354-0.354c0.047-0.047,0.073-0.11,0.073-0.177
		s-0.026-0.13-0.073-0.177l-6.338-6.337l6.338-6.338C16.613,6.578,16.613,6.42,16.515,6.322z"/>
	<path fill="#FFFFFF" d="M108.512,10.974L99.299,0.951c-0.044-0.049-0.106-0.078-0.173-0.081c-0.067,0.002-0.131,0.021-0.18,0.066
		l-0.367,0.338c-0.102,0.094-0.108,0.251-0.015,0.353l8.744,9.517l-8.744,9.516c-0.094,0.102-0.087,0.26,0.015,0.353l0.367,0.338
		c0.046,0.043,0.106,0.066,0.169,0.066c0.004,0,0.007,0,0.011,0c0.066-0.003,0.129-0.032,0.173-0.081l9.057-9.853l0.156-0.169
		C108.6,11.217,108.601,11.07,108.512,10.974z"/>
	<path fill="#FFFFFF" d="M61.169,1.273l-0.367-0.338C60.753,0.89,60.69,0.87,60.622,0.87c-0.066,0.003-0.128,0.032-0.173,0.081
		l-9.213,10.023c-0.088,0.096-0.088,0.243,0,0.339l9.212,10.022c0.045,0.049,0.107,0.078,0.173,0.081c0.004,0,0.007,0,0.011,0
		c0.062,0,0.123-0.023,0.169-0.066l0.367-0.338c0.102-0.093,0.108-0.251,0.015-0.353l-8.745-9.516l8.745-9.517
		C61.277,1.525,61.271,1.367,61.169,1.273z"/>
</g>
</svg>
